<svg width="24" height="22" viewBox="0 0 24 22" fill="none" xmlns="http://www.w3.org/2000/svg">
<path d="M12.5204 21.4284L10.7379 19.8985L12.5204 18.3685L14.3028 19.8985L12.5204 21.4284ZM8.42076 19.8985L7.17305 18.8275L10.6785 15.8186L11.9262 16.8896L8.42076 19.8985ZM16.0853 18.3685L14.3028 16.8386L16.0853 15.3087L17.8677 16.8386L16.0853 18.3685ZM5.3906 18.3685L3.60816 16.8386L5.3906 15.3087L7.17305 16.8386L5.3906 18.3685ZM6.5789 14.2887C4.77665 14.2887 3.23662 13.7403 1.95881 12.6435C0.680993 11.5467 0.0424825 10.2252 0.0432747 8.67897C0.0432747 7.26804 0.58791 6.03559 1.67718 4.98164C2.76645 3.92769 4.11319 3.30722 5.71738 3.12023C6.35114 2.15127 7.2178 1.39039 8.31737 0.837572C9.41694 0.284758 10.6199 0.00869018 11.9262 0.00937015C13.7087 0.00937015 15.2586 0.498268 16.576 1.47606C17.8934 2.45386 18.6904 3.67338 18.9669 5.13463C20.3334 5.23663 21.4821 5.72111 22.4129 6.58807C23.3438 7.45503 23.8092 8.49198 23.8092 9.69892C23.8092 10.9739 23.2895 12.0577 22.2501 12.9505C21.2108 13.8433 19.948 14.2894 18.4618 14.2887H6.5789Z" fill="white"/>
</svg>
